# xmcd
#
# Track frame offsets:
#	150
#	26447
#	52529
#	81565
#	122179
#	156707
#	181518
#	218594
#	249423
#
# Disc length: 3976 seconds
#
# Revision: 1
# Processed by: cddbd v1.5.2PL0 Copyright (c) Steve Scherf et al.
# Submitted via: audiograbber 1.83.01
#
DISCID=6d0f8609
DTITLE=Rammenas  - 1356 - Rammenas - Spells (0000)
DYEAR=1900
DGENRE=
TTITLE0=Tjari Djalan
TTITLE1=Square One
TTITLE2=In A Blink
TTITLE3=Silver Spring
TTITLE4=Gunung Mas
TTITLE5=Ceram Nites
TTITLE6=NiteBird
TTITLE7=Spells
TTITLE8=Maluku Beach
EXTD=
EXTT0=
EXTT1=
EXTT2=
EXTT3=
EXTT4=
EXTT5=
EXTT6=
EXTT7=
EXTT8=
PLAYORDER=
